PathFileType        4      (X/Y/Z)      C:\Users\pc\Desktop\IMUTRC\Sujet_02\Sujet_02_velo_80.trc         
DataRate	CameraRate	NumFrames	NumMarkers	Units	OrigDataRate	OrigDataStartFrame	OrigNumFrames
60.0	60.0	4	64	mm	60.0	591	945
Frame#	Time	pHipOrigin			pRightASI			pLeftASI			pRightCSI			pLeftCSI			pRightIschialTub			pLeftIschialTub			pSacrum			pL5SpinalProcess			pL3SpinalProcess			pT12SpinalProcess			pIJ			pT4SpinalProcess			pT8SpinalProcess			pPX			pC7SpinalProcess			pTopOfHead			pRightAuricularis			pLeftAuricularis			pBackOfHead			pRightAcromion			pLeftAcromion			pRightArmLatEpicondyle			pRightArmMedEpicondyle			pLeftArmLatEpicondyle			pLeftArmMedEpicondyle			pRightUlnarStyloid			pRightRadialStyloid			pRightOlecranon			pLeftUlnarStyloid			pLeftRadialStyloid			pLeftOlecranon			pRightTopOfHand			pRightPinky			pRightBallHand			pLeftTopOfHand			pLeftPinky			pLeftBallHand			pRightGreaterTrochanter			pRightKneeLatEpicondyle			pRightKneeMedEpicondyle			pRightPatella			pLeftGreaterTrochanter			pLeftKneeLatEpicondyle			pLeftKneeMedEpicondyle			pLeftPatella			pRightTibialTub			pRightLatMalleolus			pRightMedMalleolus			pLeftTibialTub			pLeftLatMalleolus			pLeftMedMalleolus			pRightHeelFoot			pRightFirstMetatarsal			pRightFifthMetatarsal			pRightPivotFoot			pRightHeelCenter			pRightToe			pLeftHeelFoot			pLeftFirstMetatarsal			pLeftFifthMetatarsal			pLeftPivotFoot			pLeftHeelCenter			pLeftToe			
		X1	Y1	Z1	X2	Y2	Z2	X3	Y3	Z3	X4	Y4	Z4	X5	Y5	Z5	X6	Y6	Z6	X7	Y7	Z7	X8	Y8	Z8	X9	Y9	Z9	X10	Y10	Z10	X11	Y11	Z11	X12	Y12	Z12	X13	Y13	Z13	X14	Y14	Z14	X15	Y15	Z15	X16	Y16	Z16	X17	Y17	Z17	X18	Y18	Z18	X19	Y19	Z19	X20	Y20	Z20	X21	Y21	Z21	X22	Y22	Z22	X23	Y23	Z23	X24	Y24	Z24	X25	Y25	Z25	X26	Y26	Z26	X27	Y27	Z27	X28	Y28	Z28	X29	Y29	Z29	X30	Y30	Z30	X31	Y31	Z31	X32	Y32	Z32	X33	Y33	Z33	X34	Y34	Z34	X35	Y35	Z35	X36	Y36	Z36	X37	Y37	Z37	X38	Y38	Z38	X39	Y39	Z39	X40	Y40	Z40	X41	Y41	Z41	X42	Y42	Z42	X43	Y43	Z43	X44	Y44	Z44	X45	Y45	Z45	X46	Y46	Z46	X47	Y47	Z47	X48	Y48	Z48	X49	Y49	Z49	X50	Y50	Z50	X51	Y51	Z51	X52	Y52	Z52	X53	Y53	Z53	X54	Y54	Z54	X55	Y55	Z55	X56	Y56	Z56	X57	Y57	Z57	X58	Y58	Z58	X59	Y59	Z59	X60	Y60	Z60	X61	Y61	Z61	X62	Y62	Z62	X63	Y63	Z63	X64	Y64	Z64	
591	9.833	0.0	1250.02096	7.654170837655508E-14	59.51404000000001	1365.99704	141.6355100000001	43.688849999999995	1366.33615	-147.00476999999992	-0.7912599999999926	1427.77182	118.91505000000008	-13.790530000000008	1428.05442	-117.67163999999991	-44.53661999999999	1180.16402	61.66175000000007	-51.03626	1180.27706	-56.63159999999993	-73.81324	1259.79867	4.069340000000082	-49.84937	1376.17038	3.2780800000000876	-1.2434099999999995	1488.24668	7.177860000000091	54.70996	1585.28904	12.603640000000095	318.87771	1609.76158	11.699340000000078	205.95363	1719.91625	23.907350000000093	128.07105	1667.46703	18.877200000000094	215.6183	1533.80064	4.351930000000081	258.51589	1750.43627	27.69409000000009	495.4982	1774.5697	39.676030000000075	409.08133	1737.437	94.55555000000007	414.33755	1763.43554	-32.04601999999992	397.15591	1798.25097	40.52381000000008	231.78261	1696.46105	224.94386000000011	243.42543	1728.9027	-180.68982999999992	287.90554	1414.94211	301.18740000000014	251.90321000000003	1389.28268	253.88136000000006	337.81142	1446.8751	-180.74634999999995	297.28762	1428.05442	-133.83594999999994	386.02175	1151.00044	356.97121000000004	424.39786	1162.58675	314.29970000000003	248.73818000000003	1404.09055	298.9831700000001	454.12662	1195.0284	-232.63038999999995	492.72879	1211.81441	-191.99353999999994	295.81813	1436.36264	-178.20300999999995	568.68973	1065.82697	318.65163	487.98123	1080.91743	357.93203	425.24563	1122.40205	341.54165000000006	642.55949	1149.644	-149.71765999999997	571.45914	1144.27473	-206.23621999999997	500.30228	1173.49483	-208.77954999999994	20.855350000000012	1224.02242	176.4509400000001	253.88136	841.56133	154.74781000000002	258.06374	841.1657	68.27442000000005	295.7051	869.31195	110.38074000000005	31.59386999999999	1234.42183	-173.11633999999992	452.93973	1094.821	-109.75903999999996	449.15298	1101.09455	-23.455199999999962	463.28262	1144.95296	-66.57885999999996	310.85207	799.62456	114.67616000000002	185.55043	385.96524	120.04542000000001	195.44117	387.77383	52.33619000000001	478.76871	1044.85859	-69.00915999999995	197.92799	727.05474	-152.60010999999994	194.02821	719.98992	-84.60827999999997	121.57142	283.89272	50.75367000000001	300.84829	235.68239	61.60522999999999	272.36293	226.24379	144.23535999999996	309.77822	223.81349	108.79822	160.7953	270.38478	62.735600000000005	386.92605	200.47133	132.76208999999997	75.90442	679.52263	-103.88110999999996	193.12391	535.23075	-103.25940999999999	177.92042	548.56913	-188.82849999999996	200.86696	522.68363	-150.56543999999997	101.33778	646.06364	-113.60229999999996	252.92055	459.43936	-169.66871	
592	9.85	0.0	1250.02096	7.654170837655508E-14	59.17493000000001	1365.884	141.8615800000001	43.74535999999999	1366.61874	-146.7786999999999	-1.2434099999999926	1427.60227	119.14112000000009	-13.847050000000007	1428.22397	-117.44555999999992	-44.53661999999999	1179.99446	61.49219000000007	-50.81018	1180.27706	-56.74462999999993	-73.81324	1259.74215	3.956300000000082	-50.01892	1376.2269	3.4476300000000877	-1.1868899999999996	1488.24668	7.403930000000091	54.99256	1585.11949	12.829710000000095	319.27334	1608.57469	11.134160000000078	206.80141	1719.18151	23.907350000000093	128.69276	1667.0714	19.046750000000095	215.6183	1533.00938	3.9563000000000805	259.53322	1749.47546	27.52454000000009	496.68509	1772.70458	38.545660000000076	410.32473	1735.911	93.82081000000007	415.12881	1761.85302	-32.83727999999992	398.39932	1796.78149	39.73255000000009	232.17824	1696.29149	224.7743100000001	243.53847	1727.9984	-180.74634999999992	287.7925	1414.65952	301.41347000000013	251.73366000000001	1389.00009	254.05092000000005	337.69839	1445.91428	-179.72901999999993	297.28762	1427.43271	-132.59253999999996	385.96524	1150.83089	357.42336000000006	424.34134	1162.47371	314.8083700000001	248.56862000000004	1403.80795	299.15273000000013	453.95706	1194.1241	-231.44349999999994	492.72879	1211.07967	-190.97620999999995	295.64858	1435.51487	-177.01611999999994	568.80277	1065.94001	319.27334	488.03775	1080.91743	358.49722	425.24563	1122.28901	342.05032000000006	642.44645	1148.23103	-148.98291999999998	571.23307	1143.14436	-205.38843999999997	500.13272	1172.59053	-207.76221999999996	20.17713000000001	1223.79635	176.5074600000001	252.01625	840.544	155.70863000000003	256.53774	840.14837	69.17872000000004	294.06606	868.18158	111.51112000000005	32.72424999999999	1235.15658	-172.77722999999992	455.82217	1102.62056	-105.63318999999996	451.13113	1108.8376	-19.38586999999996	464.92166	1152.97859	-62.39648999999996	307.23488	796.85516	115.35438000000003	165.99501	388.33901	115.07178000000002	176.28138	390.54324	47.475590000000004	483.29019	1053.61897	-63.752929999999964	215.56178	725.24614	-149.54810999999995	210.53163	718.74651	-81.61279999999996	98.39881	289.77065	44.48011000000001	275.69753	234.55202	54.48389	246.87306	225.0569	137.00098999999997	284.17531	221.7223	101.50733	137.0575	274.56716	56.23597000000001	360.41885	195.10206	125.07556999999998	95.12073	672.68388	-100.65954999999995	218.83986	533.93082	-99.64221999999998	202.90162	546.08231	-185.21131999999997	227.09157	521.55326	-146.89172999999997	122.08009	640.35527	-110.32422999999997	281.91457	460.62625	-165.82545	
593	9.867	0.0	1250.02096	7.654170837655508E-14	58.94886000000001	1365.71445	142.08766000000008	43.971439999999994	1366.7883	-146.5526199999999	-1.4129599999999927	1427.48923	119.36720000000008	-13.677490000000008	1428.33701	-117.27600999999991	-44.59313999999999	1179.93794	61.379150000000074	-50.75367	1180.39009	-56.91418999999993	-73.81324	1259.68563	3.8432600000000816	-49.96241	1376.28342	3.5606700000000875	-0.9042999999999995	1488.19016	7.686520000000091	55.61426	1584.94993	13.225340000000093	319.95156	1607.16173	11.134160000000078	208.10133	1718.27721	24.359500000000093	129.71009	1666.56273	19.498900000000095	215.90089	1532.10508	4.01282000000008	260.88967	1748.28857	27.976690000000094	498.15457	1770.95251	38.03699000000008	411.96377	1734.27196	93.70777000000007	416.20266	1760.21398	-32.95031999999992	399.92532	1795.14245	39.67603000000008	232.85646	1695.44372	225.0569000000001	244.44277	1726.98107	-180.2941999999999	288.30117	1413.86826	301.6395500000001	252.29884000000004	1388.26535	254.22048000000007	338.6592	1445.23606	-178.76819999999995	298.24843	1426.81101	-131.57519999999994	386.64346	1150.2657	358.10159000000004	425.1326	1161.96504	315.54311000000007	249.07729000000003	1403.01669	299.3222900000001	454.6918	1193.27632	-230.25660999999994	493.57657	1210.34493	-189.90235999999993	296.55288	1434.78012	-175.94226999999995	569.65055	1065.71394	320.00808	488.94205	1080.5218	359.23196	426.03689	1121.78035	342.78506000000004	643.12468	1146.81807	-148.13513999999998	571.85477	1142.01399	-204.48413999999997	500.81095	1171.74275	-206.74488999999994	19.66846000000001	1223.73983	176.62050000000008	253.9944	841.95696	157.06507000000002	259.02455	841.61785	70.59168000000004	296.15725	869.87713	113.15015000000004	33.45898999999999	1235.38265	-172.55115999999992	457.1221	1106.23774	-102.92028999999995	451.97891	1112.56782	-16.72948999999996	465.6564	1156.70882	-59.740119999999955	307.40444	796.28997	116.37171000000002	148.53077	394.3865	109.81556000000002	159.2693	397.04287	42.275880000000015	486.90738	1058.36652	-60.75744999999996	233.42165	719.0291	-146.83520999999996	228.22194	712.58598	-78.89990999999998	77.31739	299.60488	38.03699000000002	252.35536	237.43446	47.24951	223.19179	228.05238	129.65357	260.32448	223.64394	94.15992	115.4109	282.81887	49.56678000000001	335.43764	193.80214	117.33253	115.46741	661.09758	-97.49450999999996	245.85573	528.50504	-95.85547999999999	229.06972	539.3566	-181.48108999999997	254.55959	516.24051	-143.04847	143.95277	630.06889	-106.98962999999998	312.20852	458.0264	-161.75611	
594	9.883	0.0	1250.02096	7.654170837655508E-14	58.779300000000006	1365.54489	142.31373000000008	44.36706999999999	1366.84482	-146.38306999999992	-1.4694799999999926	1427.37619	119.48023000000009	-13.281860000000007	1428.45005	-117.10644999999991	-44.762699999999995	1179.93794	61.20960000000007	-50.69715	1180.44661	-57.08373999999993	-73.81324	1259.79867	3.730220000000082	-49.84937	1376.33993	3.6171900000000874	-0.4521499999999995	1488.19016	7.969120000000092	56.46204	1584.72386	13.734010000000094	320.85586	1605.57921	11.699340000000078	209.57081	1717.3164	25.207280000000093	130.9535	1665.99755	20.233640000000097	216.40956	1531.14427	4.351930000000081	262.5287	1746.98864	28.88098000000009	499.73709	1769.25695	38.09351000000008	413.8854	1732.63293	94.15992000000007	417.50259	1758.57495	-32.498169999999924	401.56436	1793.50341	40.24121000000009	233.70424	1694.20031	225.73512000000008	245.85573	1726.02026	-179.4464199999999	289.14894	1412.68137	301.8091000000001	253.25966000000003	1387.1915	254.27699000000007	340.35476	1444.72739	-177.63782999999995	299.83095	1426.24582	-130.55786999999995	387.88687	1149.47444	358.83633000000003	426.43252	1161.17378	316.33437000000004	249.92507000000003	1401.88632	299.3788000000001	456.04825	1192.54158	-229.18274999999994	494.98953	1209.61019	-188.88501999999994	298.19191	1434.27146	-174.86841999999993	571.12003	1065.20527	320.85586	490.29849	1079.9001	360.07974	427.33682	1121.04561	343.51980000000003	644.31157	1145.46162	-147.17432999999997	572.98515	1140.94014	-203.52332999999996	502.05435	1170.89497	-205.72754999999995	19.27283000000001	1224.02242	176.7335300000001	259.42018	845.74371	159.21278000000004	265.01552	845.4046	72.79590000000005	301.46999	874.22906	115.52393000000004	33.79809999999999	1235.10006	-172.4381199999999	457.23514	1105.84211	-101.50732999999995	451.92239	1112.5113	-15.316529999999961	465.6564	1156.42622	-58.49670999999996	310.68252	797.98553	118.01075000000003	132.76209	404.33377	104.33326000000001	143.95277	407.55532	36.90662000000002	489.56375	1059.4969	-59.287969999999966	251.45107	708.91228	-144.29187999999996	246.70351	702.35613	-76.35656999999998	57.98804	313.33889	31.480840000000015	230.31313	244.04714	40.07166	200.75392	234.89113	122.36268	237.71706	229.46535	86.81251	95.29029	294.85732	42.897590000000015	311.53029	196.34547	109.646	136.66187	645.21586	-94.15991999999997	273.60634	519.34903	-91.95568999999999	256.14211	528.78763	-177.63783	282.81887	507.25406	-139.09217	166.67323	615.54362	-103.48547999999997	343.29372	451.86587	-157.51722	
